<svg width="21" height="22" fill="none" xmlns="http://www.w3.org/2000/svg"><path opacity=".4" d="m10.11 13.043-2.804 2.803a21.083 21.083 0 0 1-.9-.849 24.36 24.36 0 0 1-2.393-2.803c-.703-.977-1.27-1.954-1.68-2.923-.412-.977-.618-1.912-.618-2.803 0-.583.103-1.14.309-1.654a3.946 3.946 0 0 1 .986-1.432c.548-.54 1.149-.806 1.783-.806.24 0 .48.052.695.154.223.103.42.258.574.48l1.99 2.804c.154.214.265.411.343.6.077.18.12.36.12.523 0 .205-.06.411-.18.608a2.916 2.916 0 0 1-.48.609l-.652.677a.459.459 0 0 0-.137.343c0 .068.008.128.025.197.026.069.052.12.069.171.154.283.42.652.797 1.098.386.446.798.9 1.244 1.354.308.3.608.592.909.849Z" fill="#fff"/><path d="M18.839 16.574c0 .24-.043.489-.13.73-.025.068-.05.136-.085.205-.146.308-.334.6-.583.874-.42.463-.883.797-1.406 1.012-.009 0-.017.008-.026.008a4.332 4.332 0 0 1-1.646.317c-.875 0-1.81-.205-2.795-.625a15.06 15.06 0 0 1-2.95-1.698 21.43 21.43 0 0 1-.986-.763l2.804-2.803c.24.18.454.318.634.412.043.017.095.043.155.068a.592.592 0 0 0 .214.035.472.472 0 0 0 .351-.146l.652-.643a2.63 2.63 0 0 1 .617-.48c.198-.12.395-.18.61-.18.162 0 .334.034.522.111.189.078.386.189.6.335l2.839 2.014a1.3 1.3 0 0 1 .471.549c.086.214.138.428.138.668Z" fill="#fff"/></svg>