<svg width="21" height="22" viewBox="0 0 21 22" fill="none" xmlns="http://www.w3.org/2000/svg">
<path opacity="0.4" d="M10.1095 13.0427L7.30563 15.8458C6.99694 15.5715 6.69683 15.2886 6.40529 14.9972C5.52209 14.1057 4.72465 13.1713 4.01295 12.1941C3.30983 11.2169 2.7439 10.2397 2.33231 9.27101C1.92073 8.29379 1.71494 7.35942 1.71494 6.46792C1.71494 5.88502 1.81783 5.32783 2.02362 4.8135C2.22942 4.2906 2.55525 3.81056 3.00971 3.38195C3.55849 2.84191 4.15872 2.57617 4.79325 2.57617C5.03334 2.57617 5.27343 2.6276 5.4878 2.73047C5.71074 2.83334 5.90796 2.98763 6.0623 3.21051L8.05163 6.0136C8.20597 6.2279 8.31744 6.42506 8.39461 6.61365C8.47179 6.79366 8.51466 6.97368 8.51466 7.13655C8.51466 7.34228 8.45464 7.54801 8.33459 7.74517C8.22312 7.94233 8.0602 8.14806 7.85441 8.35379L7.20273 9.03099C7.10841 9.12528 7.06554 9.23672 7.06554 9.37388C7.06554 9.44245 7.07411 9.50246 7.09126 9.57103C7.11699 9.63961 7.14271 9.69104 7.15986 9.74248C7.3142 10.0254 7.58002 10.394 7.9573 10.8397C8.34316 11.2855 8.75475 11.7398 9.20063 12.1941C9.50932 12.4941 9.80944 12.7856 10.1095 13.0427Z" fill="white"></path>
<path d="M18.8386 16.5744C18.8386 16.8144 18.7957 17.063 18.7099 17.3031C18.6842 17.3716 18.6585 17.4402 18.6242 17.5088C18.4784 17.8174 18.2898 18.1088 18.0411 18.3831C17.621 18.846 17.1579 19.1803 16.6349 19.3947C16.6263 19.3947 16.6177 19.4032 16.6092 19.4032C16.1032 19.609 15.5545 19.7204 14.9628 19.7204C14.0882 19.7204 13.1536 19.5147 12.1675 19.0946C11.1814 18.6746 10.1953 18.1088 9.21778 17.3973C8.88336 17.1488 8.54895 16.9002 8.23169 16.6344L11.0356 13.8313C11.2757 14.0114 11.4901 14.1485 11.6701 14.2428C11.713 14.2599 11.7645 14.2857 11.8245 14.3114C11.8931 14.3371 11.9617 14.3457 12.0388 14.3457C12.1846 14.3457 12.2961 14.2942 12.3904 14.1999L13.0421 13.557C13.2565 13.3427 13.4622 13.1799 13.6595 13.077C13.8567 12.957 14.0539 12.897 14.2683 12.897C14.4312 12.897 14.6027 12.9313 14.7913 13.0084C14.98 13.0856 15.1772 13.197 15.3915 13.3427L18.2298 15.3572C18.4527 15.5115 18.6071 15.6915 18.7014 15.9058C18.7871 16.1201 18.8386 16.3344 18.8386 16.5744Z" fill="white"></path>
</svg>
