<svg width="22" height="21" viewBox="0 0 22 21" fill="none" xmlns="http://www.w3.org/2000/svg">
<path d="M12.8414 2.49072C11.7896 2.49072 10.7809 2.90843 10.0371 3.65193C9.29343 4.39544 8.87559 5.40385 8.87559 6.45534V8.66266H6.75336C6.64681 8.66266 6.56042 8.74898 6.56042 8.85553V11.7701C6.56042 11.8766 6.64681 11.9629 6.75336 11.9629H8.87559V17.942C8.87559 18.0485 8.96197 18.1349 9.06852 18.1349H11.9839C12.0905 18.1349 12.1768 18.0485 12.1768 17.942V11.9629H14.3179C14.4064 11.9629 14.4836 11.9027 14.505 11.8169L15.2339 8.90234C15.2643 8.78061 15.1722 8.66266 15.0467 8.66266H12.1768V6.45534C12.1768 6.27914 12.2469 6.11016 12.3715 5.98557C12.4961 5.86099 12.6652 5.79099 12.8414 5.79099H15.0708C15.1774 5.79099 15.2637 5.70464 15.2637 5.59812V2.6836C15.2637 2.57708 15.1774 2.49072 15.0708 2.49072H12.8414Z" fill="white"></path>
</svg>
