<svg width="22" height="21" viewBox="0 0 22 21" fill="none" xmlns="http://www.w3.org/2000/svg">
<path d="M10.8603 7.52686C9.32119 7.52686 8.07349 8.77419 8.07349 10.3128C8.07349 11.8514 9.32119 13.0987 10.8603 13.0987C12.3993 13.0987 13.647 11.8514 13.647 10.3128C13.647 8.77419 12.3993 7.52686 10.8603 7.52686Z" fill="white"></path>
<path fill-rule="evenodd" clip-rule="evenodd" d="M6.3753 2.66769C9.33198 2.33733 12.3886 2.33733 15.3452 2.66769C16.9731 2.84956 18.286 4.13176 18.4771 5.7648C18.8306 8.7865 18.8306 11.839 18.4771 14.8607C18.286 16.4938 16.9731 17.776 15.3452 17.9578C12.3886 18.2882 9.33198 18.2882 6.3753 17.9578C4.74748 17.776 3.43453 16.4938 3.24347 14.8607C2.88995 11.839 2.88995 8.7865 3.24347 5.7648C3.43453 4.13176 4.74748 2.84956 6.3753 2.66769ZM15.1476 5.16949C14.674 5.16949 14.2901 5.55328 14.2901 6.0267C14.2901 6.50012 14.674 6.88392 15.1476 6.88392C15.6212 6.88392 16.0051 6.50012 16.0051 6.0267C16.0051 5.55328 15.6212 5.16949 15.1476 5.16949ZM6.78727 10.3128C6.78727 8.064 8.61081 6.24101 10.8602 6.24101C13.1097 6.24101 14.9332 8.064 14.9332 10.3128C14.9332 12.5616 13.1097 14.3845 10.8602 14.3845C8.61081 14.3845 6.78727 12.5616 6.78727 10.3128Z" fill="white"></path>
</svg>
