<svg width="22" height="21" fill="none" xmlns="http://www.w3.org/2000/svg"><path d="M10.86 7.527a2.786 2.786 0 1 0 0 5.573 2.786 2.786 0 0 0 0-5.573Z" fill="#fff"/><path fill-rule="evenodd" clip-rule="evenodd" d="M6.375 2.668c2.957-.33 6.014-.33 8.97 0 1.628.182 2.941 1.464 3.132 3.097a39.14 39.14 0 0 1 0 9.096c-.191 1.633-1.504 2.915-3.132 3.097a40.71 40.71 0 0 1-8.97 0c-1.628-.182-2.94-1.464-3.132-3.097a39.138 39.138 0 0 1 0-9.096c.192-1.633 1.504-2.915 3.132-3.097Zm8.773 2.501a.857.857 0 1 0 0 1.715.857.857 0 0 0 0-1.715Zm-8.36 5.144a4.072 4.072 0 1 1 8.144.001 4.072 4.072 0 0 1-8.145-.001Z" fill="#fff"/></svg>