<svg width="21" height="22" viewBox="0 0 21 22" fill="none" xmlns="http://www.w3.org/2000/svg">
<g clip-path="url('#clip0_42_97')">
<path d="M13.2034 7.65579C12.5461 7.65354 11.8949 7.78085 11.287 8.03046C10.6791 8.28006 10.1263 8.64706 9.66044 9.11044C9.19453 9.57382 8.82459 10.1245 8.57179 10.731C8.31899 11.3374 8.18829 11.9878 8.18716 12.6448V17.6852C8.18716 17.8898 8.26847 18.086 8.4132 18.2307C8.55792 18.3754 8.75421 18.4567 8.95889 18.4567H10.7596C10.9642 18.4567 11.1605 18.3754 11.3053 18.2307C11.45 18.086 11.5313 17.8898 11.5313 17.6852V12.6448C11.5311 12.4111 11.5802 12.18 11.6754 11.9666C11.7705 11.7531 11.9096 11.5621 12.0836 11.4061C12.2575 11.25 12.4624 11.1323 12.6849 11.0606C12.9074 10.989 13.1425 10.9651 13.3748 10.9904C13.7916 11.0428 14.1746 11.2464 14.4512 11.5624C14.7277 11.8784 14.8787 12.2849 14.8754 12.7048V17.6852C14.8754 17.8898 14.9567 18.086 15.1014 18.2307C15.2462 18.3754 15.4425 18.4567 15.6471 18.4567H17.4478C17.6525 18.4567 17.8488 18.3754 17.9935 18.2307C18.1382 18.086 18.2195 17.8898 18.2195 17.6852V12.6448C18.2184 11.9878 18.0877 11.3374 17.8349 10.731C17.5821 10.1245 17.2122 9.57382 16.7463 9.11044C16.2804 8.64706 15.7276 8.28006 15.1197 8.03046C14.5118 7.78085 13.8606 7.65354 13.2034 7.65579Z" fill="white"></path>
<path d="M5.87198 8.42725H3.55682C3.13061 8.42725 2.7851 8.77265 2.7851 9.19874V17.6852C2.7851 18.1112 3.13061 18.4566 3.55682 18.4566H5.87198C6.29819 18.4566 6.6437 18.1112 6.6437 17.6852V9.19874C6.6437 8.77265 6.29819 8.42725 5.87198 8.42725Z" fill="white"></path>
<path d="M4.71397 6.88346C5.7794 6.88346 6.64309 6.02002 6.64309 4.95491C6.64309 3.88981 5.7794 3.02637 4.71397 3.02637C3.64855 3.02637 2.78485 3.88981 2.78485 4.95491C2.78485 6.02002 3.64855 6.88346 4.71397 6.88346Z" fill="white"></path>
</g>
<defs>
<clipPath id="clip0_42_97">
<rect width="20.5792" height="20.5731" fill="white" transform="translate(0.212708 0.455078)"></rect>
</clipPath>
</defs>
</svg>
