<svg width="21" height="22" fill="none" xmlns="http://www.w3.org/2000/svg"><g clip-path="url('#clip0_42_97')" fill="#fff"><path d="M13.203 7.656a5 5 0 0 0-5.016 4.989v5.04a.771.771 0 0 0 .772.772h1.8a.772.772 0 0 0 .772-.772v-5.04a1.661 1.661 0 0 1 1.844-1.655 1.715 1.715 0 0 1 1.5 1.715v4.98a.771.771 0 0 0 .772.772h1.8a.772.772 0 0 0 .773-.772v-5.04a4.996 4.996 0 0 0-5.017-4.99ZM5.872 8.427H3.557a.772.772 0 0 0-.772.772v8.486c0 .426.346.772.772.772h2.315a.772.772 0 0 0 .772-.772V9.2a.772.772 0 0 0-.772-.772ZM4.714 6.883a1.929 1.929 0 1 0 0-3.857 1.929 1.929 0 0 0 0 3.857Z"/></g><defs><clipPath id="clip0_42_97"><path fill="#fff" transform="translate(.213 .455)" d="M0 0h20.579v20.573H0z"/></clipPath></defs></svg>