<svg width="21" height="21" viewBox="0 0 21 21" fill="none" xmlns="http://www.w3.org/2000/svg">
<path opacity="0.4" d="M14.577 17.5731H6.00228C3.42987 17.5731 1.71494 16.2873 1.71494 13.2871V7.28656C1.71494 4.28631 3.42987 3.00049 6.00228 3.00049H14.577C17.1494 3.00049 18.8643 4.28631 18.8643 7.28656V13.2871C18.8643 16.2873 17.1494 17.5731 14.577 17.5731Z" fill="white"></path>
<path d="M10.2896 11.0322C9.56936 11.0322 8.84052 10.8093 8.28316 10.355L5.59928 8.21199C5.32489 7.98911 5.27345 7.58622 5.49639 7.31191C5.71933 7.0376 6.12235 6.98617 6.39674 7.20905L9.0806 9.35208C9.73228 9.87498 10.8384 9.87498 11.4901 9.35208L14.174 7.20905C14.4484 6.98617 14.8599 7.02903 15.0743 7.31191C15.2973 7.58622 15.2544 7.99768 14.9714 8.21199L12.2875 10.355C11.7388 10.8093 11.0099 11.0322 10.2896 11.0322Z" fill="white"></path>
</svg>
