<svg width="21" height="21" fill="none" xmlns="http://www.w3.org/2000/svg"><path opacity=".4" d="M14.577 17.573H6.002c-2.572 0-4.287-1.286-4.287-4.286v-6C1.715 4.287 3.43 3 6.002 3h8.575c2.572 0 4.287 1.286 4.287 4.287v6c0 3-1.715 4.286-4.287 4.286Z" fill="#fff"/><path d="M10.29 11.032c-.72 0-1.45-.223-2.007-.677L5.6 8.212a.64.64 0 0 1 .798-1.003L9.08 9.352c.651.523 1.757.523 2.41 0l2.683-2.143a.633.633 0 0 1 .9.103.632.632 0 0 1-.103.9l-2.684 2.143c-.548.454-1.277.677-1.997.677Z" fill="#fff"/></svg>