<svg width="16" height="26" viewBox="0 0 16 26" fill="none" xmlns="http://www.w3.org/2000/svg">
<path d="M14.6291 1.07876C14.9806 1.43037 15.178 1.9072 15.178 2.40438C15.178 2.90157 14.9806 3.3784 14.6291 3.73001L5.34781 13.0113L14.6291 22.2925C14.9706 22.6461 15.1596 23.1198 15.1553 23.6114C15.1511 24.103 14.9539 24.5733 14.6062 24.9209C14.2586 25.2686 13.7883 25.4658 13.2967 25.47C12.8051 25.4743 12.3314 25.2853 11.9778 24.9438L1.37094 14.3369C1.01943 13.9853 0.821964 13.5084 0.821964 13.0113C0.821964 12.5141 1.01943 12.0372 1.37094 11.6856L11.9778 1.07876C12.3294 0.727252 12.8063 0.529785 13.3034 0.529785C13.8006 0.529785 14.2775 0.727252 14.6291 1.07876Z" fill="black"></path>
</svg>
