<svg width="16" height="26" viewBox="0 0 16 26" fill="none" xmlns="http://www.w3.org/2000/svg">
<path d="M1.37094 1.07876C1.01943 1.43037 0.82196 1.9072 0.82196 2.40438C0.82196 2.90157 1.01943 3.3784 1.37094 3.73001L10.6522 13.0113L1.37094 22.2925C1.02939 22.6461 0.840399 23.1198 0.844671 23.6114C0.848943 24.103 1.04614 24.5733 1.39378 24.9209C1.74142 25.2686 2.21169 25.4658 2.70331 25.47C3.19493 25.4743 3.66856 25.2853 4.02218 24.9438L14.6291 14.3369C14.9806 13.9853 15.178 13.5084 15.178 13.0113C15.178 12.5141 14.9806 12.0372 14.6291 11.6856L4.02218 1.07876C3.67057 0.727252 3.19374 0.529785 2.69656 0.529785C2.19938 0.529785 1.72255 0.727252 1.37094 1.07876Z" fill="white"></path>
</svg>
