<svg width="21" height="21" viewBox="0 0 21 21" fill="none" xmlns="http://www.w3.org/2000/svg">
<path d="M18.7244 5.3643C18.7742 5.29506 18.7008 5.20566 18.6213 5.23646C18.0565 5.45533 17.4661 5.60301 16.864 5.67577C17.5344 5.27535 18.0518 4.66581 18.3387 3.94414C18.3679 3.87063 18.2876 3.80498 18.2183 3.84322C17.5952 4.18726 16.9231 4.43498 16.2251 4.57766C16.1958 4.58363 16.1657 4.57369 16.1452 4.55204C15.6213 3.99943 14.9317 3.63147 14.1799 3.50432C13.4123 3.37451 12.6234 3.50305 11.9368 3.86979C11.2501 4.23653 10.7047 4.82073 10.386 5.53077C10.0829 6.20588 10.0012 6.95843 10.1507 7.68117C10.1623 7.73724 10.1184 7.79019 10.0612 7.78664C8.70294 7.7023 7.3758 7.34113 6.16161 6.72488C4.95052 6.1102 3.87806 5.25508 3.00955 4.21225C2.97101 4.16597 2.89795 4.17196 2.86986 4.22524C2.59962 4.73791 2.45812 5.30932 2.45851 5.89008C2.45741 6.46817 2.59931 7.03756 2.87159 7.54755C3.14388 8.05755 3.53808 8.49233 4.0191 8.81318C3.50897 8.79929 3.00879 8.67319 2.5539 8.44463C2.49528 8.41518 2.42496 8.45712 2.42801 8.52264C2.46348 9.2849 2.7434 10.0501 3.22792 10.6373C3.74354 11.2621 4.4592 11.6896 5.25386 11.8477C4.94795 11.9408 4.63036 11.9898 4.31064 11.9934C4.13663 11.9914 3.96295 11.9786 3.79061 11.955C3.72671 11.9463 3.67454 12.007 3.69691 12.0674C3.93393 12.7082 4.35265 13.2673 4.90321 13.6755C5.49182 14.1118 6.20185 14.3539 6.93449 14.3679C5.69734 15.3411 4.16991 15.8722 2.5957 15.8766C2.43394 15.8771 2.27226 15.8719 2.11096 15.8609C2.02006 15.8548 1.97826 15.9758 2.05661 16.0223C3.59042 16.9323 5.34354 17.4132 7.13171 17.411C8.45195 17.4247 9.76165 17.1753 10.9844 16.6773C12.2072 16.1793 13.3183 15.4428 14.2532 14.5106C15.188 13.5785 15.9276 12.4695 16.4289 11.2484C16.9301 10.0273 17.183 8.71863 17.1727 7.39877V6.98746C17.1727 6.9604 17.1854 6.93494 17.207 6.91863C17.7887 6.47962 18.3001 5.95549 18.7244 5.3643Z" fill="white"></path>
</svg>
