<svg width="34" height="32" fill="none" xmlns="http://www.w3.org/2000/svg"><path fill-rule="evenodd" clip-rule="evenodd" d="M25.868.505a10.347 10.347 0 0 1 6.19 5.318 13.166 13.166 0 0 1 .56 9.933 20.864 20.864 0 0 1-4.942 7.94 39.767 39.767 0 0 1-4.69 4.12l-.089.075a1.207 1.207 0 0 1-1.676-.33 1.246 1.246 0 0 1 .294-1.737 38.899 38.899 0 0 0 4.412-3.88 18.241 18.241 0 0 0 4.411-6.967c.89-2.628.71-5.509-.5-8a7.966 7.966 0 0 0-4.75-4.075 8.403 8.403 0 0 0-7.69 1.363c-.438.33-1.035.33-1.471 0a8.389 8.389 0 0 0-7.692-1.363 7.964 7.964 0 0 0-4.794 4.06 10.667 10.667 0 0 0-.47 7.97 18.302 18.302 0 0 0 4.411 6.952 55.068 55.068 0 0 0 9.589 7.49c.44.311.633.875.479 1.397-.154.522-.621.883-1.156.896a1.176 1.176 0 0 1-.676-.21 57.183 57.183 0 0 1-9.986-7.806 20.607 20.607 0 0 1-4.956-7.94 13.242 13.242 0 0 1 .618-9.888A10.346 10.346 0 0 1 7.485.505a10.942 10.942 0 0 1 9.191 1.228A10.942 10.942 0 0 1 25.869.505ZM24.662 11.98c-.062-1.385-.967-2.582-2.265-2.997a1.27 1.27 0 0 1-.52-1.46c.179-.551.703-.907 1.27-.862 2.193.705 3.754 2.685 3.956 5.019.041.326-.047.656-.246.915a1.2 1.2 0 0 1-.813.463 1.24 1.24 0 0 1-1.382-1.078Z" fill="#fff"/></svg>