<svg width="34" height="33" fill="none" xmlns="http://www.w3.org/2000/svg"><path fill-rule="evenodd" clip-rule="evenodd" d="M26.972 4.302H23.7A4.938 4.938 0 0 0 18.81 0h-4.303a4.936 4.936 0 0 0-4.89 4.3l-3.255.002C2.853 4.302 0 7.148 0 10.647v5.778c0 .42.21.812.562 1.043 3.431 2.265 7.493 3.774 11.745 4.365a1.238 1.238 0 0 0 1.378-.908 3.045 3.045 0 0 1 2.965-2.26c1.387 0 2.59.928 2.927 2.253a1.25 1.25 0 0 0 1.383.932c4.28-.592 8.36-2.108 11.797-4.382.35-.233.56-.623.56-1.043v-5.778a6.353 6.353 0 0 0-6.345-6.345Zm3.845 11.44c-2.739 1.701-5.895 2.893-9.219 3.478a5.511 5.511 0 0 0-4.948-3.055 5.592 5.592 0 0 0-4.965 3.04c-3.303-.582-6.45-1.767-9.185-3.463v-5.095c0-2.12 1.732-3.845 3.863-3.845l4.464-.004a1.249 1.249 0 0 0 1.25-1.251l-.002-.617c0-1.34 1.092-2.43 2.432-2.43h4.303c1.122 0 2.07.765 2.348 1.802h-4.5a1.25 1.25 0 0 0 0 2.5h10.314a3.85 3.85 0 0 1 3.845 3.845v5.095Zm-12.909 6.564v2.156a1.25 1.25 0 0 1-2.5 0v-2.156a1.25 1.25 0 0 1 2.5 0Zm14.117-1.097c-.655 0-1.177.51-1.227 1.15 0 0-.256 2.915-.31 3.835-.061 1.018-.475 2.127-1.053 2.822-.815.983-1.718 1.368-3.222 1.371-.986.002-6.308.003-10.328.003a1.25 1.25 0 1 0-.002 2.5c3.88 0 9.404-.001 10.335-.003 2.224-.005 3.859-.728 5.142-2.275.922-1.11 1.528-2.705 1.623-4.268.038-.643.167-2.31.24-3.24l.049-.648c0-.689-.559-1.247-1.247-1.247ZM7.104 30.387c.326.002 1.003.002 1.891.002.69 0 1.255.56 1.255 1.25s-.566 1.25-1.258 1.25c-.9 0-1.557 0-1.892-.002-2.225-.005-3.86-.729-5.143-2.277-.92-1.108-1.528-2.703-1.622-4.267-.038-.633-.164-2.262-.237-3.199a97.383 97.383 0 0 1-.053-.689c0-.688.559-1.246 1.247-1.246.655 0 1.175.51 1.227 1.151 0 0 .256 2.915.311 3.834.062 1.018.474 2.126 1.052 2.82.817.986 1.72 1.37 3.222 1.373Z" fill="#fff"/></svg>