<svg width="34" height="34" fill="none" xmlns="http://www.w3.org/2000/svg"><path fill-rule="evenodd" clip-rule="evenodd" d="M29.003 8.642a4.33 4.33 0 0 0 4.002-2.67 4.314 4.314 0 0 0-.945-4.711 4.338 4.338 0 0 0-4.725-.928 4.32 4.32 0 0 0-2.663 4.003 4.326 4.326 0 0 0 4.33 4.306Zm0-6.173c1.033 0 1.87.836 1.87 1.867 0 1.03-.837 1.866-1.87 1.866a1.869 1.869 0 0 1-1.871-1.866c0-1.031.838-1.867 1.87-1.867ZM2.46 23.325c0 4.879 2.695 7.554 7.57 7.554a1.25 1.25 0 0 1 1.238 1.235 1.236 1.236 0 0 1-1.237 1.22C3.844 33.333 0 29.496 0 23.323V11.318C0 5.129 3.844 1.293 10.03 1.293h10.842a1.236 1.236 0 0 1 1.223 1.235 1.219 1.219 0 0 1-1.238 1.22H10.031c-4.876 0-7.571 2.69-7.571 7.569v12.008Zm17.322-3.204c-.206.254-.5.422-.825.47a1.24 1.24 0 0 1-.898-.265l-4.522-3.542-4.066 5.277a1.223 1.223 0 0 1-1.723.25 1.233 1.233 0 0 1-.221-1.72l4.817-6.261a1.238 1.238 0 0 1 1.738-.22l4.522 3.541 3.977-5.07a1.225 1.225 0 0 1 1.587-.083c.478.367.617 1.025.327 1.553l-4.713 6.07Zm11.15-8.804c-.675 0-1.222.546-1.222 1.22v10.788c-.044 4.879-2.74 7.554-7.616 7.554h-4.92a1.25 1.25 0 0 0-1.236 1.235c.008.676.56 1.22 1.237 1.22h4.92c6.186 0 10.045-3.837 10.045-10.01V12.538c0-.668-.538-1.212-1.208-1.22Z" fill="#fff"/></svg>