<svg width="21" height="21" viewBox="0 0 21 21" fill="none" xmlns="http://www.w3.org/2000/svg">
<path fill-rule="evenodd" clip-rule="evenodd" d="M6.11071 4.21856C8.97099 3.99485 11.8443 3.99485 14.7045 4.21856L16.6259 4.36883C17.6961 4.45253 18.5715 5.25437 18.7484 6.31283C19.1911 8.96116 19.1911 11.6646 18.7484 14.313C18.5715 15.3714 17.6961 16.1732 16.6259 16.257L14.7045 16.4073C11.8443 16.6309 8.97099 16.6309 6.11071 16.4073L4.18938 16.257C3.1192 16.1732 2.24371 15.3714 2.06681 14.313C1.62417 11.6646 1.62417 8.96116 2.06681 6.31283C2.24371 5.25437 3.1192 4.45253 4.18938 4.36883L6.11071 4.21856ZM8.69265 12.4303V8.19547C8.69265 7.99557 8.91079 7.8721 9.0822 7.97495L12.6124 10.0924C12.7789 10.1923 12.7789 10.4335 12.6124 10.5334L9.0822 12.6509C8.91079 12.7537 8.69265 12.6302 8.69265 12.4303Z" fill="white"></path>
</svg>
